<svg xmlns="http://www.w3.org/2000/svg" viewBox="0 0 24 24"><defs><style>.cls-1,.cls-2{fill:#666;}.cls-2{opacity:0;}</style></defs><title>administrador</title><g id="Capa_2" data-name="Capa 2"><g id="Capa_1-2" data-name="Capa 1"><path class="cls-1" d="M14.42,13.91c2.57,0,6.67,1.33,6.67,2.86v1.9H7.75v-1.9c0-1.53,4.1-2.86,6.67-2.86m0-1c-2.57,0-7.63,1.24-7.63,3.82v2.85H22V16.77C22,14.19,17,13,14.42,13Z"/><path class="cls-1" d="M14.42,5.33a2.87,2.87,0,0,1,2.86,2.86,2.86,2.86,0,0,1-5.72,0,2.87,2.87,0,0,1,2.86-2.86m0-1a3.81,3.81,0,1,0,3.81,3.81,3.82,3.82,0,0,0-3.81-3.81Z"/><path class="cls-1" d="M7.65,10.76,7,10.28V9.71l.58-.47c.09,0,.09-.1,0-.19L7,8.09C7,8,6.89,8,6.79,8l-.57.38a.9.9,0,0,0-.47-.29l-.2-.76c0-.1,0-.1-.09-.1H4.32c-.1,0-.2,0-.2.1L4,8.09c-.19,0-.29.1-.48.19L2.79,8c-.09,0-.09,0-.19.09L2,9.05v.19l.57.47v.57L2,10.76c-.1,0-.1.1,0,.19l.57,1a.3.3,0,0,0,.19.1l.76-.29c.19.1.29.19.48.29l.09.76c0,.1.1.1.2.1H5.46c.09,0,.09-.1.09-.1l.2-.76c.19-.1.28-.19.47-.29l.67.29c.09,0,.09,0,.19-.1l.57-1A.13.13,0,0,0,7.65,10.76ZM4.89,11a1,1,0,0,1-1-.95,1.06,1.06,0,0,1,2.1,0A1,1,0,0,1,4.89,11Z"/><rect class="cls-2" width="24" height="24"/></g></g></svg>