<svg xmlns="http://www.w3.org/2000/svg" viewBox="0 0 24 24"><defs><style>.cls-1,.cls-2{fill:#666;}.cls-1{opacity:0;}</style></defs><title>autorizador</title><g id="Capa_2" data-name="Capa 2"><g id="Capa_7" data-name="Capa 7"><rect class="cls-1" width="24" height="24"/></g><g id="Capa_3" data-name="Capa 3"><polygon class="cls-2" points="8.35 13.89 9.55 12.69 11.15 14.29 14.85 10.69 16.05 11.89 11.15 16.79 8.35 13.89"/><path class="cls-2" d="M14,3.59a.9.9,0,0,0,.1-.5,1.9,1.9,0,0,0-3.8,0,.9.9,0,0,0,.1.5H9.05V6h6.2V3.59Zm-1.7,0a.68.68,0,0,1-.7-.7c0-.4.3-.6.7-.6A.68.68,0,0,1,13,3,.66.66,0,0,1,12.25,3.59Z"/><path class="cls-2" d="M19.45,4.59l-.2-.2a2.35,2.35,0,0,0-.8-.2H6a1.37,1.37,0,0,0-1.4,1.4V21A1.35,1.35,0,0,0,6,22.29h12.5a1.37,1.37,0,0,0,1.4-1.4V5.59A1.53,1.53,0,0,0,19.45,4.59ZM18.85,21a.43.43,0,0,1-.4.4H5.75a.1.1,0,0,1-.1-.1.37.37,0,0,1-.1-.3V5.59a.37.37,0,0,1,.4-.4h12.7l.1.1a.37.37,0,0,1,.1.3Z"/></g></g></svg>