<svg xmlns="http://www.w3.org/2000/svg" viewBox="0 0 24 24"><defs><style>.cls-1,.cls-2{fill:#666;}.cls-1{opacity:0;}</style></defs><title>consultas</title><g id="Capa_2" data-name="Capa 2"><g id="Capa_7" data-name="Capa 7"><rect class="cls-1" width="24" height="24"/></g><g id="Capa_4" data-name="Capa 4"><path class="cls-2" d="M20.35,17.06a3.25,3.25,0,0,0,.46-1.69,3.18,3.18,0,1,0-3.18,3.19,3.25,3.25,0,0,0,1.69-.47l2.15,2.15,1-1Zm-2.72.47a2.18,2.18,0,0,1-2.15-2.16,2.15,2.15,0,0,1,4.3,0A2.18,2.18,0,0,1,17.63,17.53Z"/><path class="cls-2" d="M19,5.44H3.86A1.78,1.78,0,0,0,2.08,7.22v8.71a1.78,1.78,0,0,0,1.78,1.78h10c-.18-.28-.28-.65-.46-.93H3.86A1,1,0,0,1,3,15.84V7.22a.84.84,0,0,1,.84-.84H19a.85.85,0,0,1,.85.84v4.5a3.78,3.78,0,0,1,.93.75V7.22A1.78,1.78,0,0,0,19,5.44Z"/><path class="cls-2" d="M12.76,6.19H3.3L2.08,8.35V4.69A.94.94,0,0,1,3,3.76H9a1.4,1.4,0,0,1,1,.37Z"/></g></g></svg>