<svg xmlns="http://www.w3.org/2000/svg" viewBox="0 0 24 24"><defs><style>.cls-1,.cls-2{fill:#666;}.cls-1{opacity:0;}</style></defs><title>cotizador</title><g id="Capa_2" data-name="Capa 2"><g id="Capa_7" data-name="Capa 7"><rect class="cls-1" width="24" height="24"/></g><g id="Capa_5" data-name="Capa 5"><path class="cls-2" d="M20.12,13.62a.2.2,0,0,1,.18.19v6.31a.19.19,0,0,1-.18.18H13.8a.19.19,0,0,1-.18-.18V13.81a.2.2,0,0,1,.18-.19h6.32m0-.72H13.8a.85.85,0,0,0-.9.91v6.31a.86.86,0,0,0,.9.91h6.32a.86.86,0,0,0,.9-.91V13.81a.85.85,0,0,0-.9-.91Z"/><path class="cls-2" d="M20.12,3.7a.19.19,0,0,1,.18.18V10.2a.19.19,0,0,1-.18.18H13.8a.19.19,0,0,1-.18-.18V3.88a.19.19,0,0,1,.18-.18h6.32m0-.72H13.8a.85.85,0,0,0-.9.9V10.2a.85.85,0,0,0,.9.9h6.32a.85.85,0,0,0,.9-.9V3.88a.85.85,0,0,0-.9-.9Z"/><path class="cls-2" d="M10.19,13.62a.2.2,0,0,1,.19.19v6.31a.2.2,0,0,1-.19.18H3.88a.19.19,0,0,1-.18-.18V13.81a.2.2,0,0,1,.18-.19h6.31m0-.72H3.88a.86.86,0,0,0-.91.91v6.31a.87.87,0,0,0,.91.91h6.31a.86.86,0,0,0,.91-.91V13.81a.86.86,0,0,0-.91-.91Z"/><path class="cls-2" d="M10.19,3.7a.2.2,0,0,1,.19.18V10.2a.2.2,0,0,1-.19.18H3.88a.19.19,0,0,1-.18-.18V3.88a.19.19,0,0,1,.18-.18h6.31m0-.72H3.88a.86.86,0,0,0-.91.9V10.2a.86.86,0,0,0,.91.9h6.31a.85.85,0,0,0,.91-.9V3.88a.85.85,0,0,0-.91-.9Z"/><polyline class="cls-2" points="9.29 7.49 4.78 7.49 4.78 6.58 9.29 6.58 9.29 7.49"/><polyline class="cls-2" points="19.22 18.32 14.71 18.32 14.71 17.41 19.22 17.41 19.22 18.32"/><polyline class="cls-2" points="19.22 16.51 14.71 16.51 14.71 15.61 19.22 15.61 19.22 16.51"/><polyline class="cls-2" points="19.22 7.49 17.41 7.49 17.41 9.29 16.51 9.29 16.51 7.49 14.71 7.49 14.71 6.58 16.51 6.58 16.51 4.78 17.41 4.78 17.41 6.58 19.22 6.58 19.22 7.49"/><polygon class="cls-2" points="8.93 18.23 8.3 18.86 7.04 17.6 5.77 18.86 5.14 18.23 6.41 16.96 5.14 15.7 5.77 15.07 7.04 16.33 8.3 15.07 8.93 15.7 7.67 16.96 8.93 18.23"/></g></g></svg>