<svg xmlns="http://www.w3.org/2000/svg" viewBox="0 0 24 24"><defs><style>.cls-1,.cls-2,.cls-3,.cls-4{fill:#666;}.cls-1{opacity:0;}.cls-2,.cls-3{stroke:#666;stroke-miterlimit:10;}.cls-3{stroke-width:1.5px;}</style></defs><title>Generador</title><g id="Capa_2" data-name="Capa 2"><g id="Capa_7" data-name="Capa 7"><rect class="cls-1" width="24" height="24"/></g><g id="Capa_6" data-name="Capa 6"><line class="cls-2" x1="7" y1="8" x2="17" y2="8"/><line class="cls-2" x1="7" y1="12" x2="17" y2="12"/><line class="cls-2" x1="7" y1="16" x2="12" y2="16"/><line class="cls-3" x1="15.4" y1="18" x2="20.4" y2="18"/><line class="cls-3" x1="17.9" y1="15.5" x2="17.9" y2="20.5"/><path class="cls-4" d="M19.3,3.3l-.2-.2a2.2,2.2,0,0,0-.8-.1H5.8A1.29,1.29,0,0,0,4.4,4.3V19.7A1.29,1.29,0,0,0,5.8,21h9.6a3.45,3.45,0,0,1-.8-.9h-9a.1.1,0,0,1-.1-.1.37.37,0,0,1-.1-.3V4.3c0-.3.2-.3.4-.3H18.6a.37.37,0,0,1,.1.3v9.8a3,3,0,0,1,1,.4V4.3A1.78,1.78,0,0,0,19.3,3.3Z"/></g></g></svg>