<svg xmlns="http://www.w3.org/2000/svg" viewBox="0 0 24 24"><defs><style>.cls-1,.cls-2{fill:#666;}.cls-1{fill-opacity:0;}</style></defs><title>usuarios</title><g id="Capa_2" data-name="Capa 2"><g id="Capa_1-2" data-name="Capa 1"><g id="Capa_2-2" data-name="Capa 2"><g id="Capa_7" data-name="Capa 7"><rect class="cls-1" width="24" height="24"/></g></g></g><g id="Capa_2-3" data-name="Capa 2"><path class="cls-2" d="M12.32,6.7a2.82,2.82,0,1,0,2.81,2.81A2.85,2.85,0,0,0,12.32,6.7Zm0,4.58a1.77,1.77,0,1,1,1.77-1.77A1.78,1.78,0,0,1,12.32,11.28Z"/><path class="cls-2" d="M7.09,9.11a2,2,0,0,0-1,3.78,2.13,2.13,0,0,0,1,.24,2.2,2.2,0,0,0,1-.24,1.55,1.55,0,0,0,.72-.73A4.55,4.55,0,0,1,7.9,9.51V9.27a2.48,2.48,0,0,0-.81-.16"/><path class="cls-2" d="M17.55,9.11a2.38,2.38,0,0,0-.81.16v.24a4.37,4.37,0,0,1-.88,2.65,1.31,1.31,0,0,0,.32.41c.16.08.24.24.4.32a2.14,2.14,0,0,0,1,.24,1.9,1.9,0,0,0,1-.24,1.92,1.92,0,0,0,1-1.77,2,2,0,0,0-2-2"/><path class="cls-2" d="M12.32,13.93c-1.85,0-5.63,1-5.63,2.82V18H18v-1.2C18,14.9,14.17,13.93,12.32,13.93Zm4.26,2.9H8.06v-.48c0-.73,2.89-1.05,4.26-1.05s4.26.32,4.26,1.05Z"/><path class="cls-2" d="M6.45,14.34c-1.53.24-3.78,1-3.78,2.41V18H5.08V16.43a2.7,2.7,0,0,1,1.37-2.09"/><path class="cls-2" d="M18.19,14.34a2.6,2.6,0,0,1,1.37,2V18H22v-1.2c0-1.37-2.25-2.17-3.78-2.41"/></g></g></svg>