<?xml version="1.0" encoding="utf-8"?>
<!-- Generator: Adobe Illustrator 23.0.6, SVG Export Plug-In . SVG Version: 6.00 Build 0)  -->
<svg version="1.1" id="Capa_1" xmlns="http://www.w3.org/2000/svg" xmlns:xlink="http://www.w3.org/1999/xlink" x="0px" y="0px"
	 viewBox="0 0 24 24" style="enable-background:new 0 0 24 24;" xml:space="preserve">
<path d="M12,5c-1.9,0-3.5,1.6-3.5,3.5S10.1,12,12,12s3.5-1.6,3.5-3.5S13.9,5,12,5z M12,10.7c-1.2,0-2.2-1-2.2-2.2s1-2.2,2.2-2.2
	s2.2,1,2.2,2.2S13.2,10.7,12,10.7z"/>
<path d="M5.5,8C4.1,8,3,9.1,3,10.5c0,0.9,0.5,1.8,1.3,2.2C4.7,12.9,5.1,13,5.5,13s0.8-0.1,1.2-0.3c0.4-0.2,0.7-0.5,0.9-0.9
	c-0.7-1-1.1-2.1-1.1-3.3c0-0.1,0-0.2,0-0.3C6.2,8.1,5.9,8,5.5,8"/>
<path d="M18.5,8c-0.4,0-0.7,0.1-1,0.2c0,0.1,0,0.2,0,0.3c0,1.2-0.4,2.4-1.1,3.3c0.1,0.2,0.2,0.3,0.4,0.5c0.2,0.1,0.3,0.3,0.5,0.4
	c0.4,0.2,0.8,0.3,1.2,0.3s0.9-0.1,1.2-0.3c0.8-0.4,1.3-1.2,1.3-2.2C21,9.1,19.9,8,18.5,8"/>
<path d="M12,14c-2.3,0-7,1.2-7,3.5V19h14v-1.5C19,15.2,14.3,14,12,14z M17.3,17.6H6.7V17c0-0.9,3.6-1.3,5.3-1.3s5.3,0.4,5.3,1.3
	V17.6z"/>
<path d="M4.7,14.5C2.8,14.8,0,15.8,0,17.5V19h3v-1.9C3,16.1,3.7,15.2,4.7,14.5"/>
<path d="M19.3,14.5c1,0.7,1.7,1.5,1.7,2.5V19h3v-1.5C24,15.8,21.2,14.8,19.3,14.5"/>
</svg>
