<svg xmlns="http://www.w3.org/2000/svg" viewBox="0 0 94.97 94.97"><defs><style>.cls-1{fill:#6ead3a;}</style></defs><title>exito</title><g id="Capa_2" data-name="Capa 2"><g id="verified"><g id="Group_1616" data-name="Group 1616"><g id="Group_1615" data-name="Group 1615"><path id="Path_1505" data-name="Path 1505" class="cls-1" d="M81,13.8a48.63,48.63,0,1,0,.21.22ZM47.38,89.3A41.92,41.92,0,1,1,89.3,47.38,41.92,41.92,0,0,1,47.38,89.3Z"/></g></g><g id="Group_1618" data-name="Group 1618"><g id="Group_1617" data-name="Group 1617"><path id="Path_1506" data-name="Path 1506" class="cls-1" d="M70.07,32.14a2.8,2.8,0,0,0-3.94,0L41.56,56.71,28.63,43.78a2.78,2.78,0,0,0-3.94,3.93l14.9,14.9a2.79,2.79,0,0,0,3.94,0h0L70.06,36.08A2.79,2.79,0,0,0,70.07,32.14Z"/></g></g></g></g></svg>