<svg xmlns="http://www.w3.org/2000/svg" viewBox="0 0 27 27"><defs><style>.cls-1{fill:#333;}</style></defs><title>icoAdmin</title><g id="Capa_2" data-name="Capa 2"><g id="Capa_1-2" data-name="Capa 1"><path class="cls-1" d="M13.5,27A13.5,13.5,0,1,1,27,13.5,13.44,13.44,0,0,1,13.5,27Zm0-2.7A10.8,10.8,0,1,0,2.7,13.5,10.76,10.76,0,0,0,13.5,24.3Zm0-12.2a1.43,1.43,0,0,1,1.4,1.4v5.4a1.43,1.43,0,0,1-1.4,1.4,1.37,1.37,0,0,1-1.4-1.4V13.5A1.51,1.51,0,0,1,13.5,12.1Zm0-5.3a1.43,1.43,0,0,1,1.4,1.4,1.29,1.29,0,0,1-1.4,1.3,1.35,1.35,0,0,1-1.4-1.3A1.51,1.51,0,0,1,13.5,6.8Z"/></g></g></svg>