<?xml version="1.0" encoding="utf-8"?>
<!-- Generator: Adobe Illustrator 22.0.1, SVG Export Plug-In . SVG Version: 6.00 Build 0)  -->
<svg version="1.1" id="Capa_1" xmlns="http://www.w3.org/2000/svg" xmlns:xlink="http://www.w3.org/1999/xlink" x="0px" y="0px"
	 viewBox="0 0 24 24" style="enable-background:new 0 0 24 24;" xml:space="preserve">
<style type="text/css">
	.st0{fill:#6EAD3A;}
</style>
<path class="st0" d="M6.5,8C6.5,5,9,2.5,12,2.5S17.5,5,17.5,8v10.5c0,2.2-1.8,4-4,4s-4-1.8-4-4V10c0-1.4,1.1-2.5,2.5-2.5
	s2.5,1.1,2.5,2.5v7.5H13V10c0-0.6-0.4-1-1-1s-1,0.4-1,1v8.5c0,1.4,1.1,2.5,2.5,2.5s2.5-1.1,2.5-2.5V8c0-2.2-1.8-4-4-4S8,5.8,8,8v9.5
	H6.5V8z"/>
</svg>
