<?xml version="1.0" encoding="utf-8"?>
<!-- Generator: Adobe Illustrator 22.0.1, SVG Export Plug-In . SVG Version: 6.00 Build 0)  -->
<svg version="1.1" id="Capa_1" xmlns="http://www.w3.org/2000/svg" xmlns:xlink="http://www.w3.org/1999/xlink" x="0px" y="0px"
	 viewBox="0 0 27 27" style="enable-background:new 0 0 27 27;" xml:space="preserve">
<style type="text/css">
	.st0{fill:#6EAD3A;}
</style>
<title>icoAdmin</title>
<g id="Capa_2_1_">
	<g id="Capa_1-2">
		<path class="st0" d="M13.5,27C6,27,0,21,0,13.5S6,0,13.5,0S27,6,27,13.5C27,20.9,21,27,13.6,27C13.6,27,13.5,27,13.5,27z
			 M13.5,24.3c6,0,10.8-4.8,10.8-10.8S19.5,2.7,13.5,2.7S2.7,7.5,2.7,13.5c0,0,0,0,0,0C2.7,19.4,7.5,24.3,13.5,24.3
			C13.4,24.3,13.5,24.3,13.5,24.3z M13.5,12.1c0.8,0,1.4,0.6,1.4,1.4v5.4c0,0.8-0.6,1.4-1.4,1.4c-0.8,0-1.4-0.6-1.4-1.3
			c0,0,0,0,0-0.1v-5.4C12.2,12.7,12.7,12.2,13.5,12.1z M13.5,6.8c0.8,0,1.4,0.6,1.4,1.4c0,0.7-0.6,1.3-1.3,1.3c0,0-0.1,0-0.1,0
			c-0.7,0-1.4-0.6-1.4-1.3c0,0,0,0,0,0C12.2,7.4,12.7,6.9,13.5,6.8z"/>
	</g>
</g>
</svg>
