<svg xmlns="http://www.w3.org/2000/svg" viewBox="0 0 49.17 49.17"><defs><style>.cls-1{fill:#6ead3a;}.cls-2{fill:#fff;}</style></defs><title>icoCerrar</title><g id="Capa_2" data-name="Capa 2"><g id="Capa_1-2" data-name="Capa 1"><circle class="cls-1" cx="24.58" cy="24.58" r="24.58"/><g id="Capa_4" data-name="Capa 4"><g id="_10" data-name="10"><path class="cls-2" d="M24.56,1.66A22.86,22.86,0,1,0,47.42,24.52,22.87,22.87,0,0,0,24.56,1.66Zm0,42.86a20,20,0,1,1,20-20A20,20,0,0,1,24.56,44.52Zm8.17-28.17a1.45,1.45,0,0,0-2,0l-6.14,6.14-6.05-6a1.43,1.43,0,0,0-2,2l6.05,6.05L16.44,30.6a1.44,1.44,0,0,0,2,2l6.09-6.09,6.05,6.05a1.43,1.43,0,1,0,2-2l-6.05-6.06,6.14-6.13A1.45,1.45,0,0,0,32.73,16.35Z"/></g></g></g></g></svg>