<?xml version="1.0" encoding="utf-8"?>
<!-- Generator: Adobe Illustrator 22.0.1, SVG Export Plug-In . SVG Version: 6.00 Build 0)  -->
<svg version="1.1" id="Capa_1" xmlns="http://www.w3.org/2000/svg" xmlns:xlink="http://www.w3.org/1999/xlink" x="0px" y="0px"
	 viewBox="0 0 522.8 48.2" style="enable-background:new 0 0 522.8 48.2;" xml:space="preserve">
<style type="text/css">
	.st0{enable-background:new    ;}
	.st1{fill:#363636;}
</style>
<title>logo</title>
<g id="Capa_2_1_">
	<g id="Capa_1-2">
		<g class="st0">
			<path class="st1" d="M16.5,15.4c-0.5-0.7-1.2-1.3-2.1-1.7c-0.9-0.4-1.8-0.7-2.9-0.7c-0.6,0-1.2,0.1-1.7,0.2
				c-0.6,0.2-1.1,0.4-1.6,0.8c-0.5,0.3-0.9,0.8-1.2,1.3c-0.3,0.5-0.5,1.1-0.5,1.9c0,0.7,0.1,1.3,0.4,1.7c0.3,0.5,0.6,0.9,1.1,1.2
				c0.5,0.3,1,0.6,1.7,0.8c0.6,0.2,1.3,0.5,2,0.7c0.9,0.3,1.7,0.6,2.6,0.9c0.9,0.3,1.7,0.8,2.4,1.3c0.7,0.6,1.3,1.2,1.8,2.1
				c0.5,0.8,0.7,1.9,0.7,3.2c0,1.3-0.2,2.5-0.7,3.4c-0.5,1-1.1,1.8-2,2.4c-0.8,0.6-1.8,1.1-2.8,1.4c-1.1,0.3-2.2,0.5-3.3,0.5
				c-1.6,0-3.2-0.3-4.7-0.9C4.3,35.3,3,34.4,2,33.2l2.8-2.3c0.6,0.9,1.4,1.6,2.4,2.2c1,0.6,2.1,0.8,3.3,0.8c0.6,0,1.2-0.1,1.8-0.3
				c0.6-0.2,1.1-0.4,1.6-0.8c0.5-0.4,0.9-0.8,1.2-1.3c0.3-0.5,0.5-1.2,0.5-2c0-0.8-0.2-1.4-0.5-1.9c-0.3-0.5-0.8-1-1.3-1.3
				c-0.6-0.4-1.2-0.7-1.9-0.9c-0.7-0.3-1.5-0.5-2.3-0.8c-0.8-0.2-1.6-0.5-2.4-0.9c-0.8-0.3-1.5-0.8-2.1-1.3s-1.1-1.2-1.5-2
				c-0.4-0.8-0.6-1.8-0.6-3c0-1.3,0.3-2.4,0.8-3.3s1.2-1.7,2-2.3c0.8-0.6,1.8-1,2.8-1.3c1-0.3,2.1-0.4,3.1-0.4
				c1.5,0,2.9,0.3,4.2,0.8c1.3,0.5,2.3,1.2,3.1,2.1L16.5,15.4z"/>
		</g>
		<g class="st0">
			<path class="st1" d="M27.6,13c0,0.6-0.2,1.1-0.7,1.5s-1,0.6-1.6,0.6s-1.1-0.2-1.6-0.6c-0.4-0.4-0.6-0.9-0.6-1.5
				c0-0.6,0.2-1.1,0.6-1.6c0.4-0.4,1-0.6,1.6-0.6s1.1,0.2,1.6,0.6S27.6,12.4,27.6,13z M27.1,36.2h-3.4V19.1h3.4V36.2z"/>
		</g>
		<g class="st0">
			<path class="st1" d="M41.9,23.5c-0.4-0.6-0.9-1.1-1.6-1.5c-0.7-0.4-1.5-0.6-2.3-0.6c-0.4,0-0.8,0-1.2,0.1c-0.4,0.1-0.7,0.2-1,0.4
				c-0.3,0.2-0.5,0.4-0.7,0.7c-0.2,0.3-0.3,0.6-0.3,1c0,0.7,0.3,1.3,1,1.6c0.6,0.3,1.6,0.7,2.9,1c0.8,0.2,1.6,0.4,2.3,0.7
				c0.7,0.3,1.3,0.6,1.8,1c0.5,0.4,0.9,0.9,1.2,1.4c0.3,0.6,0.4,1.2,0.4,1.9c0,1-0.2,1.9-0.6,2.6c-0.4,0.7-0.9,1.3-1.5,1.7
				c-0.6,0.4-1.4,0.8-2.2,1c-0.8,0.2-1.7,0.3-2.5,0.3c-1.3,0-2.6-0.3-3.8-0.8c-1.2-0.5-2.3-1.3-3.1-2.3l2.4-2.1
				c0.5,0.7,1.1,1.2,1.9,1.7c0.8,0.5,1.7,0.7,2.6,0.7c0.4,0,0.8,0,1.2-0.1s0.8-0.2,1.1-0.4c0.3-0.2,0.6-0.4,0.8-0.8
				c0.2-0.3,0.3-0.7,0.3-1.2c0-0.8-0.4-1.4-1.1-1.8c-0.8-0.4-1.9-0.7-3.3-1.1c-0.6-0.1-1.2-0.3-1.7-0.5c-0.6-0.2-1.1-0.5-1.6-0.8
				c-0.5-0.4-0.9-0.8-1.2-1.4c-0.3-0.5-0.5-1.2-0.5-2c0-0.9,0.2-1.7,0.6-2.4c0.4-0.7,0.9-1.2,1.5-1.6c0.6-0.4,1.3-0.7,2.1-0.9
				s1.6-0.3,2.4-0.3c1.2,0,2.4,0.2,3.5,0.7c1.1,0.5,2,1.2,2.6,2.1L41.9,23.5z"/>
		</g>
		<g class="st0">
			<path class="st1" d="M57.7,21.9h-4.5v8.9c0,1,0.2,1.8,0.6,2.2c0.4,0.4,1,0.7,1.8,0.7c0.3,0,0.6,0,1-0.1c0.4-0.1,0.7-0.2,1-0.3
				l0.1,2.8c-0.4,0.1-0.9,0.3-1.4,0.3c-0.5,0.1-1,0.1-1.5,0.1c-1.6,0-2.8-0.4-3.7-1.3c-0.9-0.9-1.3-2.2-1.3-4v-9.3h-3.3v-2.8h3.3
				v-4.9h3.3v4.9h4.5V21.9z"/>
		</g>
		<g class="st0">
			<path class="st1" d="M76.7,27.5c0,0.2,0,0.4,0,0.6s0,0.4,0,0.6H63.1c0,0.7,0.2,1.4,0.5,2c0.3,0.6,0.7,1.2,1.2,1.6
				c0.5,0.5,1.1,0.8,1.7,1.1c0.7,0.3,1.4,0.4,2.1,0.4c1.2,0,2.1-0.3,3-0.8c0.8-0.5,1.5-1.1,2-1.8l2.4,1.9c-0.9,1.2-2,2.1-3.2,2.7
				c-1.2,0.6-2.6,0.9-4.1,0.9c-1.3,0-2.5-0.2-3.6-0.6c-1.1-0.4-2.1-1-2.8-1.8c-0.8-0.8-1.4-1.7-1.9-2.8c-0.5-1.1-0.7-2.3-0.7-3.7
				c0-1.3,0.2-2.5,0.7-3.7c0.4-1.1,1.1-2.1,1.9-2.9c0.8-0.8,1.7-1.4,2.8-1.9c1.1-0.4,2.2-0.7,3.5-0.7c1.3,0,2.4,0.2,3.4,0.6
				c1,0.4,1.9,1,2.6,1.8c0.7,0.8,1.3,1.7,1.6,2.8C76.5,24.9,76.7,26.2,76.7,27.5z M73.3,26.2c0-0.7-0.1-1.3-0.3-1.9
				c-0.2-0.6-0.5-1.1-0.9-1.5c-0.4-0.4-0.9-0.8-1.5-1c-0.6-0.3-1.3-0.4-2.1-0.4c-0.7,0-1.4,0.1-2,0.4c-0.6,0.3-1.2,0.6-1.7,1
				c-0.5,0.4-0.9,0.9-1.2,1.5c-0.3,0.6-0.5,1.2-0.5,1.9H73.3z"/>
		</g>
		<g class="st0">
			<path class="st1" d="M86.4,19.6c0.9-0.6,2.1-1,3.4-1c1.2,0,2.2,0.3,3.1,0.8c0.9,0.5,1.6,1.4,2.2,2.6c0.6-1.1,1.4-1.9,2.4-2.5
				c1-0.6,2.2-0.9,3.4-0.9c1.1,0,2.1,0.2,2.8,0.6s1.5,0.9,2,1.5c0.5,0.6,0.9,1.4,1.2,2.2c0.3,0.8,0.4,1.7,0.4,2.7v10.6h-3.4v-9.5
				c0-0.7-0.1-1.4-0.2-2c-0.1-0.6-0.3-1.2-0.6-1.7c-0.3-0.5-0.7-0.9-1.2-1.2c-0.5-0.3-1.1-0.4-1.8-0.4c-0.8,0-1.4,0.2-2,0.5
				c-0.6,0.3-1,0.7-1.4,1.3c-0.3,0.5-0.6,1.1-0.8,1.7c-0.2,0.6-0.2,1.3-0.2,2v9.2h-3.4V26.1c0-0.7-0.1-1.3-0.2-1.8
				c-0.1-0.6-0.3-1-0.6-1.4c-0.3-0.4-0.7-0.7-1.1-0.9c-0.5-0.2-1-0.3-1.7-0.3c-1.2,0-2.3,0.5-3.1,1.5c-0.8,1-1.2,2.4-1.2,4.1v9.1H81
				V22.8c0-0.5,0-1,0-1.8c0-0.7-0.1-1.4-0.1-1.9H84c0,0.4,0.1,0.9,0.1,1.5c0,0.5,0,1,0,1.4h0.1C84.7,21,85.4,20.3,86.4,19.6z"/>
		</g>
		<g class="st0">
			<path class="st1" d="M123.1,25.2c0-1.3-0.4-2.2-1.2-2.8s-1.8-0.9-3.1-0.9c-1,0-1.9,0.2-2.7,0.6c-0.9,0.4-1.6,0.8-2.1,1.4
				l-1.8-2.2c0.8-0.8,1.9-1.4,3.1-1.9c1.2-0.5,2.5-0.7,3.9-0.7c1.2,0,2.3,0.2,3.2,0.5s1.6,0.8,2.2,1.4c0.6,0.6,1,1.3,1.3,2.1
				c0.3,0.8,0.4,1.7,0.4,2.6v7.5c0,0.6,0,1.2,0.1,1.8c0,0.6,0.1,1.2,0.2,1.6h-3.1c-0.2-0.8-0.3-1.6-0.3-2.4h-0.1
				c-0.6,0.9-1.4,1.6-2.4,2.1c-0.9,0.5-2.1,0.8-3.4,0.8c-0.7,0-1.4-0.1-2.1-0.3c-0.7-0.2-1.4-0.5-2-0.9c-0.6-0.4-1.1-0.9-1.5-1.6
				s-0.6-1.5-0.6-2.5c0-1.3,0.3-2.3,1-3.1c0.7-0.8,1.6-1.3,2.7-1.7c1.1-0.4,2.4-0.7,3.8-0.8c1.4-0.1,2.8-0.2,4.3-0.2V25.2z
				 M122.2,28.1c-0.8,0-1.7,0-2.6,0.1c-0.9,0.1-1.7,0.2-2.4,0.4c-0.7,0.2-1.3,0.5-1.8,1c-0.5,0.4-0.7,1-0.7,1.7
				c0,0.5,0.1,0.9,0.3,1.3c0.2,0.3,0.5,0.6,0.8,0.8c0.3,0.2,0.7,0.4,1.1,0.4c0.4,0.1,0.8,0.1,1.3,0.1c1.6,0,2.8-0.5,3.7-1.4
				c0.9-0.9,1.3-2.1,1.3-3.6v-0.9H122.2z"/>
		</g>
		<g class="st0">
			<path class="st1" d="M153.9,36.2v-2.3h-0.1c-0.6,0.9-1.4,1.6-2.5,2.1c-1.1,0.5-2.2,0.7-3.4,0.7c-1.3,0-2.5-0.3-3.6-0.8
				s-2-1.2-2.7-2.1c-0.7-0.9-1.3-1.9-1.7-3c-0.4-1.2-0.6-2.4-0.6-3.6c0-1.2,0.2-2.4,0.6-3.6c0.4-1.1,1-2.1,1.7-3
				c0.7-0.9,1.6-1.5,2.7-2.1s2.2-0.8,3.5-0.8c1.3,0,2.4,0.3,3.3,0.8s1.6,1.1,2.1,1.7h0.1V9h5.9v27.2H153.9z M153.7,27.2
				c0-0.6-0.1-1.1-0.3-1.7c-0.2-0.6-0.5-1-0.9-1.5s-0.8-0.8-1.3-1c-0.5-0.3-1.1-0.4-1.8-0.4c-0.7,0-1.3,0.1-1.8,0.4
				c-0.5,0.3-1,0.6-1.3,1c-0.4,0.4-0.6,0.9-0.8,1.5c-0.2,0.6-0.3,1.1-0.3,1.7s0.1,1.1,0.3,1.7c0.2,0.6,0.5,1.1,0.8,1.5
				c0.4,0.4,0.8,0.8,1.3,1c0.5,0.3,1.1,0.4,1.8,0.4c0.7,0,1.3-0.1,1.8-0.4c0.5-0.3,1-0.6,1.3-1s0.7-0.9,0.9-1.5
				C153.6,28.4,153.7,27.8,153.7,27.2z"/>
		</g>
		<g>
			<path class="st1" d="M180.5,27.5c0,0.2,0,0.5,0,0.7c0,0.2,0,0.5,0,0.7h-13c0,0.5,0.2,1,0.5,1.4c0.3,0.4,0.6,0.8,1,1.1
				c0.4,0.3,0.8,0.5,1.3,0.7s1,0.3,1.5,0.3c0.9,0,1.7-0.2,2.4-0.5c0.6-0.3,1.2-0.8,1.6-1.3l4.1,2.6c-0.8,1.2-2,2.2-3.3,2.8
				c-1.4,0.7-3,1-4.8,1c-1.3,0-2.6-0.2-3.8-0.6c-1.2-0.4-2.2-1-3.2-1.8c-0.9-0.8-1.6-1.8-2.1-3c-0.5-1.2-0.8-2.5-0.8-4
				c0-1.5,0.3-2.8,0.8-4c0.5-1.2,1.2-2.2,2.1-3s1.9-1.5,3.1-1.9c1.2-0.5,2.4-0.7,3.8-0.7c1.3,0,2.5,0.2,3.6,0.7s2.1,1.1,2.8,1.9
				s1.4,1.9,1.9,3.1C180.2,24.6,180.5,25.9,180.5,27.5z M175,25.2c0-0.9-0.3-1.7-0.9-2.4c-0.6-0.7-1.5-1-2.6-1
				c-0.6,0-1.1,0.1-1.6,0.3c-0.5,0.2-0.9,0.4-1.3,0.7c-0.4,0.3-0.6,0.7-0.9,1.1s-0.3,0.9-0.4,1.3H175z"/>
		</g>
		<g>
			<path class="st1" d="M215.9,36.2v-9.8c0-0.5,0-1-0.1-1.5s-0.2-0.9-0.4-1.2c-0.2-0.3-0.5-0.6-0.8-0.8c-0.3-0.2-0.8-0.3-1.3-0.3
				c-0.5,0-0.9,0.1-1.3,0.3s-0.7,0.5-0.9,0.9c-0.3,0.4-0.4,0.8-0.6,1.2c-0.1,0.5-0.2,1-0.2,1.5v9.7h-5.9V26c0-1-0.2-1.8-0.6-2.4
				s-1.1-0.9-1.9-0.9c-0.9,0-1.7,0.4-2.2,1.1c-0.5,0.7-0.8,1.7-0.8,2.7v9.7H193V18.3h5.7v2.5h0.1c0.2-0.4,0.5-0.8,0.8-1.1
				c0.3-0.4,0.7-0.7,1.2-1c0.5-0.3,1-0.5,1.5-0.7c0.6-0.2,1.2-0.3,1.9-0.3c1.3,0,2.4,0.3,3.3,0.8c0.9,0.5,1.6,1.3,2.1,2.3
				c0.6-0.9,1.4-1.7,2.3-2.2c0.9-0.6,2.1-0.8,3.4-0.8c1.2,0,2.2,0.2,3.1,0.7c0.8,0.4,1.5,1,2,1.7s0.9,1.5,1.1,2.4s0.3,1.7,0.3,2.6
				v11.1H215.9z"/>
			<path class="st1" d="M244.1,27.5c0,0.2,0,0.5,0,0.7c0,0.2,0,0.5,0,0.7h-13c0,0.5,0.2,1,0.5,1.4c0.3,0.4,0.6,0.8,1,1.1
				c0.4,0.3,0.8,0.5,1.3,0.7s1,0.3,1.5,0.3c0.9,0,1.7-0.2,2.4-0.5c0.6-0.3,1.2-0.8,1.6-1.3l4.1,2.6c-0.8,1.2-2,2.2-3.3,2.8
				c-1.4,0.7-3,1-4.8,1c-1.3,0-2.6-0.2-3.8-0.6c-1.2-0.4-2.2-1-3.2-1.8c-0.9-0.8-1.6-1.8-2.1-3c-0.5-1.2-0.8-2.5-0.8-4
				c0-1.5,0.3-2.8,0.8-4c0.5-1.2,1.2-2.2,2.1-3s1.9-1.5,3.1-1.9c1.2-0.5,2.4-0.7,3.8-0.7c1.3,0,2.5,0.2,3.6,0.7s2.1,1.1,2.8,1.9
				s1.4,1.9,1.9,3.1C243.8,24.6,244.1,25.9,244.1,27.5z M238.6,25.2c0-0.9-0.3-1.7-0.9-2.4c-0.6-0.7-1.5-1-2.6-1
				c-0.6,0-1.1,0.1-1.6,0.3c-0.5,0.2-0.9,0.4-1.3,0.7c-0.4,0.3-0.6,0.7-0.9,1.1s-0.3,0.9-0.4,1.3H238.6z"/>
			<path class="st1" d="M259.4,23.1c-0.3-0.1-0.5-0.1-0.8-0.1c-0.3,0-0.5,0-0.7,0c-0.8,0-1.5,0.1-2,0.4s-1,0.6-1.3,1
				c-0.3,0.4-0.6,0.9-0.7,1.3c-0.1,0.5-0.2,0.9-0.2,1.3v9.2h-5.9V18.3h5.7v2.6h0.1c0.5-0.9,1.1-1.7,1.9-2.2c0.8-0.6,1.8-0.9,2.9-0.9
				c0.2,0,0.5,0,0.7,0c0.2,0,0.4,0.1,0.6,0.1L259.4,23.1z"/>
			<path class="st1" d="M273.7,24.1c-0.3-0.4-0.8-0.8-1.4-1c-0.6-0.3-1.2-0.4-1.8-0.4c-0.6,0-1.2,0.1-1.7,0.4s-0.9,0.6-1.3,1
				c-0.4,0.4-0.6,0.9-0.8,1.5c-0.2,0.6-0.3,1.1-0.3,1.8s0.1,1.2,0.3,1.8c0.2,0.6,0.5,1,0.8,1.5s0.8,0.8,1.3,1
				c0.5,0.2,1.1,0.4,1.7,0.4c0.6,0,1.2-0.1,1.8-0.3c0.6-0.2,1.1-0.6,1.4-1l3.3,4c-0.7,0.7-1.7,1.3-2.9,1.7c-1.2,0.4-2.4,0.6-3.7,0.6
				c-1.4,0-2.7-0.2-4-0.6s-2.3-1.1-3.2-1.9s-1.6-1.8-2.1-3s-0.8-2.5-0.8-4c0-1.5,0.3-2.8,0.8-4s1.2-2.2,2.1-3c0.9-0.8,2-1.5,3.2-1.9
				s2.5-0.7,3.9-0.7c0.6,0,1.3,0.1,1.9,0.2s1.2,0.3,1.8,0.5s1.1,0.5,1.6,0.8c0.5,0.3,0.9,0.6,1.3,1L273.7,24.1z"/>
			<path class="st1" d="M279.2,20.7c1.1-1,2.3-1.8,3.7-2.3s2.8-0.8,4.3-0.8c1.5,0,2.8,0.2,3.8,0.6s1.9,0.9,2.5,1.7
				c0.6,0.8,1.1,1.8,1.4,3c0.3,1.2,0.5,2.6,0.5,4.2v9H290v-1.9h-0.1c-0.5,0.7-1.1,1.3-2.1,1.7c-0.9,0.4-1.9,0.6-3,0.6
				c-0.7,0-1.5-0.1-2.2-0.3c-0.8-0.2-1.5-0.5-2.1-0.9c-0.6-0.4-1.2-1-1.6-1.7c-0.4-0.7-0.6-1.6-0.6-2.7c0-1.3,0.4-2.3,1.1-3.1
				s1.6-1.4,2.7-1.8c1.1-0.4,2.4-0.7,3.7-0.9c1.4-0.1,2.7-0.2,4-0.2v-0.3c0-0.9-0.3-1.5-0.9-2c-0.6-0.4-1.4-0.6-2.3-0.6
				c-0.8,0-1.7,0.2-2.4,0.5c-0.8,0.4-1.4,0.8-2,1.3L279.2,20.7z M290,28.4h-0.8c-0.6,0-1.3,0-2,0.1c-0.7,0.1-1.2,0.2-1.8,0.3
				c-0.5,0.2-0.9,0.4-1.3,0.7c-0.3,0.3-0.5,0.8-0.5,1.3c0,0.3,0.1,0.6,0.2,0.9c0.2,0.2,0.4,0.4,0.6,0.6c0.2,0.1,0.5,0.2,0.8,0.3
				c0.3,0.1,0.6,0.1,0.9,0.1c1.2,0,2.1-0.3,2.8-1c0.6-0.7,1-1.6,1-2.7V28.4z"/>
			<path class="st1" d="M313.4,36.2v-2.3h-0.1c-0.6,0.9-1.4,1.6-2.5,2.1c-1.1,0.5-2.2,0.7-3.4,0.7c-1.3,0-2.5-0.3-3.6-0.8
				c-1.1-0.5-2-1.2-2.7-2.1c-0.7-0.9-1.3-1.9-1.7-3c-0.4-1.2-0.6-2.4-0.6-3.6s0.2-2.4,0.6-3.6c0.4-1.1,1-2.1,1.7-3
				c0.7-0.9,1.6-1.5,2.7-2.1c1-0.5,2.2-0.8,3.5-0.8c1.3,0,2.4,0.3,3.3,0.8c0.9,0.5,1.6,1.1,2.1,1.7h0.1V9h5.9v27.2H313.4z
				 M313.2,27.2c0-0.6-0.1-1.1-0.3-1.7c-0.2-0.6-0.5-1-0.9-1.5c-0.4-0.4-0.8-0.8-1.4-1s-1.1-0.4-1.8-0.4c-0.7,0-1.3,0.1-1.8,0.4
				c-0.5,0.3-1,0.6-1.3,1c-0.4,0.4-0.6,0.9-0.8,1.5c-0.2,0.6-0.3,1.1-0.3,1.7s0.1,1.1,0.3,1.7c0.2,0.6,0.4,1.1,0.8,1.5
				c0.4,0.4,0.8,0.8,1.3,1c0.5,0.3,1.1,0.4,1.8,0.4c0.7,0,1.3-0.1,1.8-0.4c0.5-0.3,1-0.6,1.4-1c0.4-0.4,0.7-0.9,0.9-1.5
				C313.1,28.4,313.2,27.8,313.2,27.2z"/>
			<path class="st1" d="M341.3,27.5c0,0.2,0,0.5,0,0.7c0,0.2,0,0.5,0,0.7h-13c0,0.5,0.2,1,0.5,1.4c0.3,0.4,0.6,0.8,1,1.1
				c0.4,0.3,0.8,0.5,1.3,0.7s1,0.3,1.5,0.3c0.9,0,1.7-0.2,2.4-0.5c0.6-0.3,1.2-0.8,1.6-1.3l4.1,2.6c-0.8,1.2-2,2.2-3.3,2.8
				c-1.4,0.7-3,1-4.8,1c-1.3,0-2.6-0.2-3.8-0.6c-1.2-0.4-2.2-1-3.2-1.8c-0.9-0.8-1.6-1.8-2.1-3c-0.5-1.2-0.8-2.5-0.8-4
				c0-1.5,0.3-2.8,0.8-4c0.5-1.2,1.2-2.2,2.1-3s1.9-1.5,3.1-1.9c1.2-0.5,2.4-0.7,3.8-0.7c1.3,0,2.5,0.2,3.6,0.7s2.1,1.1,2.8,1.9
				s1.4,1.9,1.9,3.1C341.1,24.6,341.3,25.9,341.3,27.5z M335.9,25.2c0-0.9-0.3-1.7-0.9-2.4c-0.6-0.7-1.5-1-2.6-1
				c-0.6,0-1.1,0.1-1.6,0.3c-0.5,0.2-0.9,0.4-1.3,0.7c-0.4,0.3-0.6,0.7-0.9,1.1s-0.3,0.9-0.4,1.3H335.9z"/>
			<path class="st1" d="M364,27.2c0,1.5-0.3,2.8-0.8,4c-0.5,1.2-1.2,2.2-2.2,3c-0.9,0.8-2,1.5-3.2,1.9c-1.2,0.5-2.5,0.7-3.9,0.7
				c-1.3,0-2.6-0.2-3.8-0.7c-1.2-0.5-2.3-1.1-3.2-1.9c-0.9-0.8-1.6-1.8-2.1-3c-0.5-1.2-0.8-2.5-0.8-4s0.3-2.8,0.8-4
				c0.5-1.2,1.2-2.2,2.1-3c0.9-0.8,2-1.4,3.2-1.9c1.2-0.4,2.5-0.6,3.8-0.6c1.4,0,2.7,0.2,3.9,0.6c1.2,0.4,2.3,1.1,3.2,1.9
				c0.9,0.8,1.6,1.8,2.2,3C363.7,24.4,364,25.7,364,27.2z M358.3,27.2c0-0.6-0.1-1.1-0.3-1.7c-0.2-0.6-0.5-1-0.8-1.5
				c-0.4-0.4-0.8-0.8-1.3-1s-1.1-0.4-1.8-0.4s-1.3,0.1-1.8,0.4c-0.5,0.3-1,0.6-1.3,1c-0.3,0.4-0.6,0.9-0.8,1.5
				c-0.2,0.6-0.3,1.1-0.3,1.7s0.1,1.1,0.3,1.7c0.2,0.6,0.4,1.1,0.8,1.5c0.4,0.4,0.8,0.8,1.3,1.1c0.5,0.3,1.1,0.4,1.8,0.4
				s1.3-0.1,1.8-0.4c0.5-0.3,1-0.6,1.3-1.1c0.4-0.4,0.6-0.9,0.8-1.5C358.2,28.3,358.3,27.8,358.3,27.2z"/>
			<path class="st1" d="M390.3,36.2v-2.3h-0.1c-0.6,0.9-1.4,1.6-2.5,2.1c-1.1,0.5-2.2,0.7-3.4,0.7c-1.3,0-2.5-0.3-3.6-0.8
				c-1.1-0.5-2-1.2-2.7-2.1c-0.7-0.9-1.3-1.9-1.7-3c-0.4-1.2-0.6-2.4-0.6-3.6s0.2-2.4,0.6-3.6c0.4-1.1,1-2.1,1.7-3
				c0.7-0.9,1.6-1.5,2.7-2.1c1-0.5,2.2-0.8,3.5-0.8c1.3,0,2.4,0.3,3.3,0.8c0.9,0.5,1.6,1.1,2.1,1.7h0.1V9h5.9v27.2H390.3z
				 M390.1,27.2c0-0.6-0.1-1.1-0.3-1.7c-0.2-0.6-0.5-1-0.9-1.5c-0.4-0.4-0.8-0.8-1.4-1s-1.1-0.4-1.8-0.4c-0.7,0-1.3,0.1-1.8,0.4
				c-0.5,0.3-1,0.6-1.3,1c-0.4,0.4-0.6,0.9-0.8,1.5c-0.2,0.6-0.3,1.1-0.3,1.7s0.1,1.1,0.3,1.7c0.2,0.6,0.4,1.1,0.8,1.5
				c0.4,0.4,0.8,0.8,1.3,1c0.5,0.3,1.1,0.4,1.8,0.4c0.7,0,1.3-0.1,1.8-0.4c0.5-0.3,1-0.6,1.4-1c0.4-0.4,0.7-0.9,0.9-1.5
				C390,28.4,390.1,27.8,390.1,27.2z"/>
			<path class="st1" d="M418.2,27.5c0,0.2,0,0.5,0,0.7c0,0.2,0,0.5,0,0.7h-13c0,0.5,0.2,1,0.5,1.4c0.3,0.4,0.6,0.8,1,1.1
				c0.4,0.3,0.8,0.5,1.3,0.7s1,0.3,1.5,0.3c0.9,0,1.7-0.2,2.4-0.5c0.6-0.3,1.2-0.8,1.6-1.3l4.1,2.6c-0.8,1.2-2,2.2-3.3,2.8
				c-1.4,0.7-3,1-4.8,1c-1.3,0-2.6-0.2-3.8-0.6c-1.2-0.4-2.2-1-3.2-1.8c-0.9-0.8-1.6-1.8-2.1-3c-0.5-1.2-0.8-2.5-0.8-4
				c0-1.5,0.3-2.8,0.8-4c0.5-1.2,1.2-2.2,2.1-3s1.9-1.5,3.1-1.9c1.2-0.5,2.4-0.7,3.8-0.7c1.3,0,2.5,0.2,3.6,0.7s2.1,1.1,2.8,1.9
				s1.4,1.9,1.9,3.1C418,24.6,418.2,25.9,418.2,27.5z M412.7,25.2c0-0.9-0.3-1.7-0.9-2.4c-0.6-0.7-1.5-1-2.6-1
				c-0.6,0-1.1,0.1-1.6,0.3c-0.5,0.2-0.9,0.4-1.3,0.7c-0.4,0.3-0.6,0.7-0.9,1.1s-0.3,0.9-0.4,1.3H412.7z"/>
			<path class="st1" d="M437.3,22.7v6.9c0,0.8,0.2,1.5,0.5,1.9s0.9,0.6,1.7,0.6c0.3,0,0.6,0,0.9-0.1c0.3,0,0.6-0.1,0.8-0.2l0.1,4.3
				c-0.4,0.1-0.9,0.3-1.5,0.4c-0.6,0.1-1.2,0.2-1.9,0.2c-1.2,0-2.2-0.2-3-0.5c-0.8-0.3-1.5-0.7-2-1.3s-0.8-1.2-1.1-2
				c-0.2-0.8-0.3-1.7-0.3-2.6v-7.6h-2.9v-4.4h2.8v-4.7h5.8v4.7h4.2v4.4H437.3z"/>
			<path class="st1" d="M444,20.7c1.1-1,2.3-1.8,3.7-2.3s2.8-0.8,4.3-0.8c1.5,0,2.8,0.2,3.8,0.6s1.9,0.9,2.5,1.7
				c0.6,0.8,1.1,1.8,1.4,3c0.3,1.2,0.5,2.6,0.5,4.2v9h-5.4v-1.9h-0.1c-0.5,0.7-1.1,1.3-2.1,1.7c-0.9,0.4-1.9,0.6-3,0.6
				c-0.7,0-1.5-0.1-2.2-0.3c-0.8-0.2-1.5-0.5-2.1-0.9c-0.6-0.4-1.2-1-1.6-1.7c-0.4-0.7-0.6-1.6-0.6-2.7c0-1.3,0.4-2.3,1.1-3.1
				s1.6-1.4,2.7-1.8c1.1-0.4,2.4-0.7,3.7-0.9c1.4-0.1,2.7-0.2,4-0.2v-0.3c0-0.9-0.3-1.5-0.9-2c-0.6-0.4-1.4-0.6-2.3-0.6
				c-0.8,0-1.7,0.2-2.4,0.5c-0.8,0.4-1.4,0.8-2,1.3L444,20.7z M454.8,28.4h-0.8c-0.6,0-1.3,0-2,0.1c-0.7,0.1-1.2,0.2-1.8,0.3
				c-0.5,0.2-0.9,0.4-1.3,0.7c-0.3,0.3-0.5,0.8-0.5,1.3c0,0.3,0.1,0.6,0.2,0.9c0.2,0.2,0.4,0.4,0.6,0.6c0.2,0.1,0.5,0.2,0.8,0.3
				c0.3,0.1,0.6,0.1,0.9,0.1c1.2,0,2.1-0.3,2.8-1c0.6-0.7,1-1.6,1-2.7V28.4z"/>
			<path class="st1" d="M475.2,23.6c-0.5-0.5-1-0.8-1.7-1.2c-0.6-0.3-1.3-0.5-2.1-0.5c-0.6,0-1.1,0.1-1.5,0.3
				c-0.5,0.2-0.7,0.6-0.7,1.1c0,0.5,0.3,0.9,0.8,1.1c0.5,0.2,1.3,0.5,2.5,0.7c0.7,0.1,1.3,0.3,2,0.6c0.7,0.3,1.3,0.6,1.9,1
				c0.6,0.4,1,1,1.3,1.6c0.3,0.6,0.5,1.4,0.5,2.2c0,1.1-0.2,2.1-0.7,2.9c-0.5,0.8-1.1,1.4-1.8,1.9c-0.7,0.5-1.6,0.8-2.5,1
				c-0.9,0.2-1.8,0.3-2.7,0.3c-1.5,0-2.9-0.2-4.3-0.7c-1.4-0.5-2.6-1.2-3.5-2.1l3.3-3.5c0.5,0.6,1.2,1.1,1.9,1.4
				c0.8,0.4,1.6,0.6,2.4,0.6c0.5,0,1-0.1,1.4-0.3c0.5-0.2,0.7-0.6,0.7-1.2c0-0.6-0.3-1-0.9-1.2c-0.6-0.3-1.5-0.5-2.7-0.8
				c-0.6-0.1-1.2-0.3-1.9-0.6c-0.6-0.2-1.2-0.6-1.7-1c-0.5-0.4-0.9-0.9-1.2-1.5c-0.3-0.6-0.5-1.3-0.5-2.2c0-1.1,0.2-2,0.7-2.8
				s1-1.4,1.8-1.9c0.7-0.5,1.5-0.8,2.4-1.1c0.9-0.2,1.7-0.3,2.6-0.3c1.3,0,2.7,0.2,3.9,0.6c1.3,0.4,2.4,1,3.3,1.9L475.2,23.6z"/>
			<path class="st1" d="M481.4,20.7c1.1-1,2.3-1.8,3.7-2.3s2.8-0.8,4.3-0.8c1.5,0,2.8,0.2,3.8,0.6s1.9,0.9,2.5,1.7
				c0.6,0.8,1.1,1.8,1.4,3c0.3,1.2,0.5,2.6,0.5,4.2v9h-5.4v-1.9h-0.1c-0.5,0.7-1.1,1.3-2.1,1.7c-0.9,0.4-1.9,0.6-3,0.6
				c-0.7,0-1.5-0.1-2.2-0.3c-0.8-0.2-1.5-0.5-2.1-0.9c-0.6-0.4-1.2-1-1.6-1.7c-0.4-0.7-0.6-1.6-0.6-2.7c0-1.3,0.4-2.3,1.1-3.1
				s1.6-1.4,2.7-1.8c1.1-0.4,2.4-0.7,3.7-0.9c1.4-0.1,2.7-0.2,4-0.2v-0.3c0-0.9-0.3-1.5-0.9-2c-0.6-0.4-1.4-0.6-2.3-0.6
				c-0.8,0-1.7,0.2-2.4,0.5c-0.8,0.4-1.4,0.8-2,1.3L481.4,20.7z M492.2,28.4h-0.8c-0.6,0-1.3,0-2,0.1c-0.7,0.1-1.2,0.2-1.8,0.3
				c-0.5,0.2-0.9,0.4-1.3,0.7c-0.3,0.3-0.5,0.8-0.5,1.3c0,0.3,0.1,0.6,0.2,0.9c0.2,0.2,0.4,0.4,0.6,0.6c0.2,0.1,0.5,0.2,0.8,0.3
				c0.3,0.1,0.6,0.1,0.9,0.1c1.2,0,2.1-0.3,2.8-1c0.6-0.7,1-1.6,1-2.7V28.4z"/>
			<path class="st1" d="M512.5,23.6c-0.5-0.5-1-0.8-1.7-1.2c-0.6-0.3-1.3-0.5-2.1-0.5c-0.6,0-1.1,0.1-1.5,0.3
				c-0.5,0.2-0.7,0.6-0.7,1.1c0,0.5,0.3,0.9,0.8,1.1c0.5,0.2,1.3,0.5,2.5,0.7c0.7,0.1,1.3,0.3,2,0.6c0.7,0.3,1.3,0.6,1.9,1
				c0.6,0.4,1,1,1.3,1.6c0.3,0.6,0.5,1.4,0.5,2.2c0,1.1-0.2,2.1-0.7,2.9c-0.5,0.8-1.1,1.4-1.8,1.9c-0.7,0.5-1.6,0.8-2.5,1
				c-0.9,0.2-1.8,0.3-2.7,0.3c-1.5,0-2.9-0.2-4.3-0.7c-1.4-0.5-2.6-1.2-3.5-2.1l3.3-3.5c0.5,0.6,1.2,1.1,1.9,1.4
				c0.8,0.4,1.6,0.6,2.4,0.6c0.5,0,1-0.1,1.4-0.3c0.5-0.2,0.7-0.6,0.7-1.2c0-0.6-0.3-1-0.9-1.2c-0.6-0.3-1.5-0.5-2.7-0.8
				c-0.6-0.1-1.2-0.3-1.9-0.6c-0.6-0.2-1.2-0.6-1.7-1c-0.5-0.4-0.9-0.9-1.2-1.5c-0.3-0.6-0.5-1.3-0.5-2.2c0-1.1,0.2-2,0.7-2.8
				s1-1.4,1.8-1.9c0.7-0.5,1.5-0.8,2.4-1.1c0.9-0.2,1.7-0.3,2.6-0.3c1.3,0,2.7,0.2,3.9,0.6c1.3,0.4,2.4,1,3.3,1.9L512.5,23.6z"/>
		</g>
	</g>
</g>
</svg>
