<svg xmlns="http://www.w3.org/2000/svg" viewBox="0 0 196.88 112.46"><defs><style>.cls-1{fill:#b91f27;}.cls-2{fill:#006237;}</style></defs><title>logo1</title><g id="Capa_2" data-name="Capa 2"><g id="Capa_1-2" data-name="Capa 1"><g id="Capa_1-2-2" data-name="Capa 1-2-2"><path class="cls-1" d="M98.63,39.5a32.1,32.1,0,1,0,32.1,32.1,32.1,32.1,0,0,0-32.1-32.1Z"/><path class="cls-2" d="M115.33,7s-.8-.2-2.2-.6A243.67,243.67,0,0,1,140.23,0c-14.5,0-26.8.7-37.3,2.3-1.5.2-3,.5-4.4.7-1.4-.3-2.9-.5-4.4-.7C83.63.7,71.33,0,56.83,0a243.67,243.67,0,0,1,27.1,6.4c-1.4.4-2.2.6-2.2.6C33.73,22-2.47,54.9.13,81.9c2.2,22.4,25,33.7,62.1,29.8-20.7-3.7-29.1-14.2-30.7-30-2.3-24.2,25.2-52.9,64.2-69.4,0,0,1-.4,2.7-1,1.7.6,2.7,1,2.7,1,39,16.5,66.5,45.2,64.2,69.4-1.5,15.8-10,26.3-30.7,30,37.2,3.9,60-7.5,62.1-29.8C199.53,54.9,163.33,22,115.33,7Z"/></g></g></g></svg>